<?xml version="1.0" encoding="UTF-8"?>
<!DOCTYPE svg PUBLIC "-//W3C//DTD SVG 1.1//EN" "http://www.w3.org/Graphics/SVG/1.1/DTD/svg11.dtd">
<svg version="1.1" xmlns="http://www.w3.org/2000/svg" xmlns:xlink="http://www.w3.org/1999/xlink" x="0" y="0" width="393" height="508" viewBox="0, 0, 393, 508">
  <g id="Layer_1">
    <path d="M55.277,141.054 C55.277,141.054 10.277,176.301 8.027,222.806 C5.777,269.304 95.031,290.299 133.281,291.804 L105.529,302.301 C105.529,302.301 134.027,317.299 183.527,318.804 C233.027,320.301 290.781,303.806 290.781,303.806 L322.281,274.556 C322.281,274.556 347.777,270.801 343.277,247.556 C338.777,224.304 338.024,207.801 326.029,207.056 C314.027,206.304 288.531,212.301 288.531,212.301 C288.531,212.301 185.777,116.304 163.277,87.054 C163.277,87.054 84.527,138.051 55.277,141.054" fill="#CB9A78"/>
    <path d="M84.527,310.556 C84.527,310.556 53.027,323.304 53.779,334.554 C54.531,345.804 48.527,410.301 48.527,410.301 L80.779,399.804 C80.779,399.804 90.531,387.056 91.277,369.801 C92.029,352.554 84.527,310.556 84.527,310.556" fill="#CB9A78"/>
    <path d="M358.281,359.304 C358.281,359.304 335.781,398.306 329.031,403.551 C322.281,408.804 308.029,428.301 302.777,446.301 C297.531,464.301 290.029,498.051 290.029,498.051 L356.777,498.051 C356.777,498.051 371.029,410.301 358.281,359.304" fill="#CB9A78"/>
    <path d="M32.777,162.801 L56.029,138.051 C56.029,138.051 59.031,139.556 90.531,127.554 C122.031,115.551 158.777,87.054 158.777,87.054 C158.777,87.054 260.779,204.054 294.529,210.804 C294.529,210.804 326.029,204.054 335.029,213.806 C335.029,213.806 318.527,131.301 278.027,91.554 C237.527,51.806 188.779,27.056 113.031,51.806 C37.277,76.556 32.777,162.801 32.777,162.801" fill="#595A59"/>
    <path d="M24.529,177.054 L32.031,166.556 C32.031,166.556 34.281,139.549 38.781,129.051 C43.281,118.554 70.281,40.556 170.779,40.556 C271.277,40.556 320.031,149.301 329.031,178.551 C338.031,207.801 342.531,234.801 342.531,234.801 C342.531,234.801 341.027,255.051 335.029,267.054 C329.031,279.056 322.281,274.556 322.281,274.556 C322.281,274.556 246.527,357.054 167.777,379.554 C89.027,402.054 40.279,408.804 40.279,408.804 L38.781,499.556 L290.029,498.051 C290.029,498.051 297.531,429.806 321.529,407.306 C345.527,384.806 370.277,331.551 377.779,279.801 C385.281,228.051 403.802,107.634 323.027,45.056 C239.777,-19.449 86.777,9.801 56.029,48.051 C25.281,86.301 11.029,135.801 24.529,177.054" fill="#4FB79D"/>
    <path d="M128.781,292.556 C128.781,292.556 30.527,275.301 23.777,261.056 C23.777,261.056 4.279,392.301 48.527,410.301 C48.527,410.301 42.529,341.304 57.527,329.301 C72.531,317.306 128.781,292.556 128.781,292.556" fill="#4FB79D"/>
    <path d="M102.527,301.556 C102.527,301.556 104.777,318.804 173.781,320.301 C242.779,321.806 288.531,309.051 288.531,309.051 C288.531,309.051 206.02,374.301 167.777,379.554 C129.527,384.806 80.779,399.804 80.779,399.804 C80.779,399.804 95.031,375.054 92.781,357.806 C90.531,340.551 84.527,310.556 84.527,310.556 L102.527,301.556" fill="#3D79AC"/>
    <path d="M88.281,307.554 C88.281,307.554 103.279,357.799 260.779,330.054" fill-opacity="0" stroke="#D0BA6C" stroke-width="9"/>
    <path d="M385.281,238.556 C385.281,238.556 278.027,414.056 39.527,432.801 M355.279,358.551 C355.279,358.551 233.779,480.804 98.779,498.804" fill-opacity="0" stroke="#E67B9D" stroke-width="9"/>
    <path d="M91.333,192.101 C91.333,206.937 83.992,218.96 74.922,218.96 C65.852,218.96 58.504,206.937 58.504,192.101 C58.504,177.272 65.852,165.241 74.922,165.241 C83.992,165.241 91.333,177.272 91.333,192.101" fill="#563E26"/>
    <path d="M248.903,206.43 C248.903,221.259 241.556,233.283 232.485,233.283 C223.422,233.283 216.074,221.259 216.074,206.43 C216.074,191.594 223.422,179.571 232.485,179.571 C241.556,179.571 248.903,191.594 248.903,206.43" fill="#563E26"/>
    <path d="M156.984,200.454 C156.984,200.454 136.565,194.843 131.918,207.021 C127.143,219.558 139.082,228.508 154.002,227.313 M126.553,238.064 C126.553,238.064 127.741,258.349 151.021,260.142 C172.15,261.766 180.264,242.233 180.264,242.233 M62.85,152.297 C62.85,152.297 64.045,163.041 75.379,170.803 M212.334,160.636 C212.334,160.636 212.932,173.172 225.468,182.721 M289.192,211.205 C308.563,213.869 333.658,189.112 340.816,234.176 C349.113,286.355 287.097,275.357 287.097,275.357 C195.782,299.531 53.73,301.324 16.725,248.801 C-15.563,202.978 54.729,140.161 54.729,140.161 C54.729,140.161 126.904,120.804 160.654,85.929 C160.654,85.929 213.529,152.304 289.192,211.205 z M30.154,162.429 C30.154,162.429 41.404,39.804 174.154,43.179 C306.904,46.554 336.154,212.491 336.154,212.491 M134.779,291.241 C134.779,291.241 59.404,309.804 53.779,340.179 C48.154,370.554 49.279,407.679 49.279,407.679 M323.779,272.679 C323.779,272.679 279.904,330.054 189.904,368.304 C135.658,391.352 41.404,411.054 41.404,411.054 L36.904,499.929 L287.779,499.929 C292.279,499.929 293.404,430.179 323.779,406.554 C354.154,382.929 375.529,315.429 381.154,265.929 C386.779,216.429 410.404,4.929 193.279,7.179 C-23.846,9.429 22.279,180.429 22.279,180.429 M357.529,357.054 C357.529,357.054 368.779,424.554 359.779,497.679 L287.779,497.679" fill-opacity="0" stroke="#563E26" stroke-width="9" stroke-linecap="round" stroke-linejoin="round"/>
    <path d="M164.029,131.21 C164.029,140.063 159.747,147.241 154.467,147.241 C149.179,147.241 144.904,140.063 144.904,131.21 C144.904,122.351 149.179,115.179 154.467,115.179 C159.747,115.179 164.029,122.351 164.029,131.21" fill="#DF5356"/>
    <path d="M308.029,258.335 C308.029,262.835 304.246,266.491 299.592,266.491 C294.93,266.491 291.154,262.835 291.154,258.335 C291.154,253.828 294.93,250.179 299.592,250.179 C304.246,250.179 308.029,253.828 308.029,258.335" fill="#E9D34A"/>
    <path d="M298.467,283.366 L277.092,331.179 L311.404,331.179 L298.467,283.366" fill="#E9D34A"/>
    <path d="M35.217,283.366 L13.842,331.179 L48.154,331.179 L35.217,283.366" fill="#E9D34A"/>
    <path d="M164.029,131.21 C164.029,140.063 159.747,147.241 154.467,147.241 C149.179,147.241 144.904,140.063 144.904,131.21 C144.904,122.351 149.179,115.179 154.467,115.179 C159.747,115.179 164.029,122.351 164.029,131.21 z M308.029,258.335 C308.029,262.835 304.246,266.491 299.592,266.491 C294.93,266.491 291.154,262.835 291.154,258.335 C291.154,253.828 294.93,250.179 299.592,250.179 C304.246,250.179 308.029,253.828 308.029,258.335 z M101.592,301.929 C101.592,301.929 143.779,339.054 287.217,309.241 M86.404,310.929 C86.404,310.929 101.592,380.116 81.342,400.366 M25.654,261.429 C25.654,261.429 2.029,369.429 43.654,408.804 M298.467,283.366 L277.092,331.179 L311.404,331.179 L298.467,283.366 z M35.217,283.366 L13.842,331.179 L48.154,331.179 L35.217,283.366 z" fill-opacity="0" stroke="#563E26" stroke-width="9" stroke-linecap="round" stroke-linejoin="round"/>
  </g>
</svg>
